<svg xmlns="http://www.w3.org/2000/svg" xmlns:xlink="http://www.w3.org/1999/xlink" width="32" height="32" viewBox="0 0 32 32">
    <defs>
        <circle id="lus3rcsv7a" cx="16" cy="16" r="16"/>
    </defs>
    <g fill="none" fill-rule="evenodd">
        <g>
            <g>
                <g transform="translate(-360 -1118) translate(50 1118) translate(310)">
                    <mask id="4zirb4k5xb" fill="#fff">
                        <use xlink:href="#lus3rcsv7a"/>
                    </mask>
                    <use fill="#FFF" xlink:href="#lus3rcsv7a"/>
                    <g mask="url(#4zirb4k5xb)">
                        <path fill="#F1361D" d="M0 0H32V32H0z"/>
                        <path fill="#FFDC42" d="M17.224 18.25l.017 1.571.823 1.314-1.497.018-1.251.864-.018-1.572-.822-1.313 1.497-.019 1.25-.863zm.928-4.13l1.342.696 1.488-.173-.664 1.409.165 1.562-1.342-.697-1.488.173.664-1.409-.165-1.562zm2.181-5.434l-.034 1.571.778 1.343-1.497-.036-1.278.817.034-1.572-.778-1.342 1.497.036 1.278-.817zM15.608 4.25l1.107 1.058 1.476.264-1.008 1.162-.252 1.55-1.106-1.059-1.476-.264L15.357 5.8l.251-1.55zM9.999 15.22L6.292 18 7.66 13.433 4 10.584 8.553 10.54 9.999 6 11.445 10.54 15.999 10.584 12.339 13.433 13.707 18z"/>
                    </g>
                </g>
            </g>
        </g>
    </g>
</svg>
