<svg xmlns="http://www.w3.org/2000/svg" xmlns:xlink="http://www.w3.org/1999/xlink" width="32" height="32" viewBox="0 0 32 32">
    <defs>
        <circle id="8wtcsb1zza" cx="16" cy="16" r="16"/>
    </defs>
    <g fill="none" fill-rule="evenodd">
        <g>
            <g>
                <g transform="translate(-484 -1118) translate(50 1118) translate(434)">
                    <mask id="fpx2qn3jpb" fill="#fff">
                        <use xlink:href="#8wtcsb1zza"/>
                    </mask>
                    <use fill="#043CAE" xlink:href="#8wtcsb1zza"/>
                    <g mask="url(#fpx2qn3jpb)">
                        <g>
                            <path fill="#043CAE" d="M0 0H32V24H0z" transform="translate(0 4)"/>
                            <path fill="#FFD429" d="M17.077 18.869L16.762 20l.315 1.131L16 20.8l-1.077.331.315-1.131-.315-1.131L16 19.2l1.077-.331zm-3.809-1.072l-.316 1.131.316 1.132-1.078-.332-1.077.332.316-1.132-.316-1.131 1.077.331 1.078-.331zm7.619 0l-.316 1.131.316 1.132-1.077-.332-1.078.332.316-1.132-.316-1.131 1.078.331 1.077-.331zm2.789-2.928L23.36 16l.316 1.131-1.078-.331-1.077.331.315-1.131-.315-1.131 1.077.331 1.078-.331zm-13.197 0L10.164 16l.315 1.131-1.077-.331-1.078.331L8.64 16l-.316-1.131 1.078.331 1.077-.331zm14.218-4L24.38 12l.316 1.131-1.078-.331-1.077.331.315-1.131-.315-1.131 1.077.331 1.078-.331zm-15.239 0L9.143 12l.315 1.131-1.077-.331-1.078.331L7.62 12l-.316-1.131 1.078.331 1.077-.331zm14.218-4L23.36 8l.316 1.131-1.078-.331-1.077.331L21.836 8l-.315-1.131 1.077.331 1.078-.331zm-13.197 0L10.164 8l.315 1.131L9.402 8.8l-1.078.331L8.64 8l-.316-1.131 1.078.331 1.077-.331zM20.887 3.94l-.316 1.132.316 1.131-1.077-.331-1.078.331.316-1.131-.316-1.132 1.078.332 1.077-.332zm-7.619 0l-.316 1.132.316 1.131-1.078-.331-1.077.331.316-1.131-.316-1.132 1.077.332 1.078-.332zm3.81-1.071L16.761 4l.315 1.131L16 4.8l-1.077.331L15.238 4l-.315-1.131L16 3.2l1.077-.331z" transform="translate(0 4)"/>
                        </g>
                    </g>
                </g>
            </g>
        </g>
    </g>
</svg>
