<svg xmlns="http://www.w3.org/2000/svg" xmlns:xlink="http://www.w3.org/1999/xlink" width="32" height="32" viewBox="0 0 32 32">
    <defs>
        <linearGradient id="9rld102i1e" x1="50%" x2="50%" y1="0%" y2="100%">
            <stop offset="0%" stop-color="#FFF"/>
            <stop offset="100%" stop-color="#F0F0F0"/>
        </linearGradient>
        <filter id="tmb76e0oec" width="117.9%" height="137.5%" x="-8.9%" y="-9.4%" filterUnits="objectBoundingBox">
            <feOffset dy="2" in="SourceAlpha" result="shadowOffsetOuter1"/>
            <feColorMatrix in="shadowOffsetOuter1" values="0 0 0 0 0 0 0 0 0 0 0 0 0 0 0 0 0 0 0.06 0"/>
        </filter>
        <circle id="efusyix28a" cx="16" cy="16" r="16"/>
        <path id="xqb9epedgd" d="M12 10.667c.442 0 .8.477.8 1.066 0 .59-.358 1.067-.8 1.067-.442 0-.8-.478-.8-1.067s.358-1.066.8-1.066zm-3.2 0c.442 0 .8.477.8 1.066 0 .59-.358 1.067-.8 1.067-.442 0-.8-.478-.8-1.067s.358-1.066.8-1.066zm-3.2 0c.442 0 .8.477.8 1.066 0 .59-.358 1.067-.8 1.067-.442 0-.8-.478-.8-1.067s.358-1.066.8-1.066zm-3.2 0c.442 0 .8.477.8 1.066 0 .59-.358 1.067-.8 1.067-.442 0-.8-.478-.8-1.067s.358-1.066.8-1.066zM4 8.533c.442 0 .8.478.8 1.067 0 .59-.358 1.067-.8 1.067-.442 0-.8-.478-.8-1.067 0-.59.358-1.067.8-1.067zm3.2 0c.442 0 .8.478.8 1.067 0 .59-.358 1.067-.8 1.067-.442 0-.8-.478-.8-1.067 0-.59.358-1.067.8-1.067zm3.2 0c.442 0 .8.478.8 1.067 0 .59-.358 1.067-.8 1.067-.442 0-.8-.478-.8-1.067 0-.59.358-1.067.8-1.067zM12 6.4c.442 0 .8.478.8 1.067s-.358 1.066-.8 1.066c-.442 0-.8-.477-.8-1.066 0-.59.358-1.067.8-1.067zm-3.2 0c.442 0 .8.478.8 1.067s-.358 1.066-.8 1.066c-.442 0-.8-.477-.8-1.066 0-.59.358-1.067.8-1.067zm-3.2 0c.442 0 .8.478.8 1.067s-.358 1.066-.8 1.066c-.442 0-.8-.477-.8-1.066 0-.59.358-1.067.8-1.067zm-3.2 0c.442 0 .8.478.8 1.067s-.358 1.066-.8 1.066c-.442 0-.8-.477-.8-1.066 0-.59.358-1.067.8-1.067zM4 4.267c.442 0 .8.477.8 1.066 0 .59-.358 1.067-.8 1.067-.442 0-.8-.478-.8-1.067s.358-1.066.8-1.066zm3.2 0c.442 0 .8.477.8 1.066 0 .59-.358 1.067-.8 1.067-.442 0-.8-.478-.8-1.067s.358-1.066.8-1.066zm3.2 0c.442 0 .8.477.8 1.066 0 .59-.358 1.067-.8 1.067-.442 0-.8-.478-.8-1.067s.358-1.066.8-1.066zm-8-2.134c.442 0 .8.478.8 1.067 0 .59-.358 1.067-.8 1.067-.442 0-.8-.478-.8-1.067 0-.59.358-1.067.8-1.067zm3.2 0c.442 0 .8.478.8 1.067 0 .59-.358 1.067-.8 1.067-.442 0-.8-.478-.8-1.067 0-.59.358-1.067.8-1.067zm3.2 0c.442 0 .8.478.8 1.067 0 .59-.358 1.067-.8 1.067-.442 0-.8-.478-.8-1.067 0-.59.358-1.067.8-1.067zm3.2 0c.442 0 .8.478.8 1.067 0 .59-.358 1.067-.8 1.067-.442 0-.8-.478-.8-1.067 0-.59.358-1.067.8-1.067z"/>
    </defs>
    <g fill="none" fill-rule="evenodd">
        <g>
            <g>
                <g transform="translate(-112 -1118) translate(50 1118) translate(62)">
                    <mask id="6gbu8ikyub" fill="#fff">
                        <use xlink:href="#efusyix28a"/>
                    </mask>
                    <use fill="#FFF" xlink:href="#efusyix28a"/>
                    <g mask="url(#6gbu8ikyub)">
                        <g>
                            <path fill="#D02F44" d="M33.6 29.867V32H0v-2.133h33.6zm0-4.267v2.133H0V25.6h33.6zm0-4.267v2.134H0v-2.134h33.6zm0-4.266V19.2H0v-2.133h33.6zm0-4.267v2.133H0V12.8h33.6zm0-4.267v2.134H0V8.533h33.6zm0-4.266V6.4H0V4.267h33.6zM33.6 0v2.133H0V0h33.6z" transform="translate(-1)"/>
                            <path fill="#46467F" d="M0 0H14.4V14.933H0z" transform="translate(-1)"/>
                            <g transform="translate(-1)">
                                <use fill="#000" filter="url(#tmb76e0oec)" xlink:href="#xqb9epedgd"/>
                                <use fill="url(#9rld102i1e)" xlink:href="#xqb9epedgd"/>
                            </g>
                        </g>
                    </g>
                </g>
            </g>
        </g>
    </g>
</svg>
