<?xml version="1.0" standalone="no"?>
<!DOCTYPE svg PUBLIC "-//W3C//DTD SVG 20010904//EN"
 "http://www.w3.org/TR/2001/REC-SVG-20010904/DTD/svg10.dtd">
<svg version="1.0" xmlns="http://www.w3.org/2000/svg"
 width="512.000000pt" height="512.000000pt" viewBox="0 0 512.000000 512.000000"
 preserveAspectRatio="xMidYMid meet">

<g transform="translate(0.000000,512.000000) scale(0.100000,-0.100000)"
fill="#000000" stroke="none">
<path d="M1073 4029 c-105 -33 -200 -119 -249 -224 -24 -53 -371 -1668 -381
-1776 -18 -192 133 -393 328 -438 24 -6 101 -11 170 -11 l126 0 5 -78 c8 -135
83 -260 199 -329 111 -66 24 -63 1609 -63 1585 0 1498 -3 1609 63 68 41 123
103 164 186 l32 66 0 1155 0 1155 -32 67 c-44 94 -109 160 -202 206 l-75 37
-1620 2 c-1585 2 -1622 2 -1683 -18z m3252 -344 l25 -24 0 -826 0 -825 -1470
0 -1470 0 0 825 0 826 25 24 24 25 1421 0 1421 0 24 -25z m-3255 -1055 l0
-710 -116 0 c-114 0 -116 0 -145 29 -16 16 -29 35 -29 43 0 7 61 301 135 653
74 352 138 652 141 668 3 15 7 27 10 27 2 0 4 -319 4 -710z m3280 -1047 c-1
-81 -8 -101 -47 -121 -31 -17 -2815 -17 -2846 0 -39 20 -46 40 -47 121 l0 77
1470 0 1470 0 0 -77z"/>
<path d="M2647 3219 c-63 -33 -97 -109 -83 -185 9 -47 68 -111 114 -124 21 -5
105 -10 187 -10 124 0 157 4 191 19 102 47 133 176 61 258 -52 59 -68 63 -259
63 -153 -1 -177 -3 -211 -21z"/>
<path d="M2364 2671 c-128 -58 -136 -239 -13 -301 36 -19 60 -20 509 -20 516
0 502 -2 554 60 34 41 48 95 36 144 -12 54 -38 87 -90 114 -44 22 -47 22 -500
22 -421 0 -458 -2 -496 -19z"/>
</g>
</svg>
