<?xml version="1.0" standalone="no"?>
<!DOCTYPE svg PUBLIC "-//W3C//DTD SVG 20010904//EN"
 "http://www.w3.org/TR/2001/REC-SVG-20010904/DTD/svg10.dtd">
<svg version="1.0" xmlns="http://www.w3.org/2000/svg"
 width="512.000000pt" height="512.000000pt" viewBox="0 0 512.000000 512.000000"
 preserveAspectRatio="xMidYMid meet">

<g transform="translate(0.000000,512.000000) scale(0.100000,-0.100000)"
fill="#000000" stroke="none">
<path d="M2515 4781 c-51 -13 -93 -39 -121 -77 -20 -25 -90 -229 -259 -747
l-231 -712 -765 -5 c-722 -5 -766 -6 -802 -24 -81 -40 -136 -142 -121 -224 16
-91 17 -93 646 -549 326 -238 602 -438 612 -446 18 -13 9 -43 -214 -732 -211
-653 -232 -723 -228 -772 9 -106 100 -188 208 -187 72 0 95 12 280 148 85 62
354 257 598 434 l442 321 595 -432 c327 -238 612 -441 632 -452 58 -30 136
-27 196 8 62 37 97 90 104 159 5 51 -10 102 -227 772 -130 402 -229 721 -224
726 5 4 250 183 544 396 682 494 672 486 697 531 44 81 36 173 -22 241 -70 82
-15 76 -874 82 l-765 5 -231 712 c-169 518 -239 722 -259 748 -46 59 -140 94
-211 76z m189 -1344 c169 -526 170 -529 208 -567 67 -67 41 -64 603 -70 l510
-5 -399 -290 c-219 -159 -408 -303 -421 -320 -27 -36 -45 -87 -45 -126 0 -16
70 -244 155 -506 85 -262 154 -477 152 -479 -1 -1 -175 126 -387 283 -389 288
-430 315 -486 327 -72 16 -105 -4 -530 -314 -225 -164 -410 -297 -411 -296 -2
1 65 211 148 467 171 523 175 547 127 630 -23 38 -88 90 -432 340 l-405 294
512 5 c493 5 513 6 551 26 83 43 77 30 323 791 43 134 80 243 83 243 3 0 67
-195 144 -433z"/>
</g>
</svg>
