<?xml version="1.0" standalone="no"?>
<!DOCTYPE svg PUBLIC "-//W3C//DTD SVG 20010904//EN"
 "http://www.w3.org/TR/2001/REC-SVG-20010904/DTD/svg10.dtd">
<svg version="1.0" xmlns="http://www.w3.org/2000/svg"
 width="512.000000pt" height="512.000000pt" viewBox="0 0 512.000000 512.000000"
 preserveAspectRatio="xMidYMid meet">

<g transform="translate(0.000000,512.000000) scale(0.100000,-0.100000)"
fill="#000000" stroke="none">
<path d="M1975 4798 c-563 -63 -1093 -403 -1389 -890 -401 -661 -356 -1502
113 -2116 179 -235 398 -412 675 -548 294 -144 617 -207 945 -183 368 26 686
144 1007 374 10 7 125 -101 486 -461 445 -443 477 -473 533 -494 44 -17 81
-23 137 -23 66 -1 85 4 141 31 76 38 171 133 208 208 35 71 38 188 9 269 -21
57 -47 84 -515 555 l-494 495 49 100 c305 625 232 1382 -189 1945 -72 97 -225
256 -321 333 -387 312 -899 461 -1395 405z m484 -528 c270 -55 501 -179 696
-375 260 -259 396 -586 397 -955 1 -171 -17 -288 -68 -440 -70 -211 -183 -388
-348 -548 -206 -200 -440 -318 -731 -368 -136 -24 -397 -14 -530 19 -469 119
-829 450 -980 900 -50 149 -68 267 -67 437 1 369 138 697 398 956 227 227 514
362 839 398 84 9 296 -4 394 -24z"/>
</g>
</svg>
