<?xml version="1.0" standalone="no"?>
<!DOCTYPE svg PUBLIC "-//W3C//DTD SVG 20010904//EN"
 "http://www.w3.org/TR/2001/REC-SVG-20010904/DTD/svg10.dtd">
<svg version="1.0" xmlns="http://www.w3.org/2000/svg"
 width="512.000000pt" height="512.000000pt" viewBox="0 0 512.000000 512.000000"
 preserveAspectRatio="xMidYMid meet">

<g transform="translate(0.000000,512.000000) scale(0.100000,-0.100000)"
fill="#000000" stroke="none">
<path d="M2060 5109 c-50 -21 -83 -67 -186 -265 l-105 -202 -112 33 c-569 169
-766 225 -794 225 -49 0 -98 -23 -125 -60 -15 -21 -73 -200 -178 -558 l-155
-527 -80 -6 c-137 -9 -229 -69 -287 -187 l-33 -67 0 -1620 0 -1620 22 -47 c30
-66 105 -143 172 -175 l56 -28 2305 0 2305 0 56 28 c67 32 142 109 172 175
l22 47 0 1620 0 1620 -33 67 c-55 112 -167 188 -276 188 -38 0 -200 82 -1336
682 -1365 719 -1339 707 -1410 677z m653 -664 c185 -98 336 -180 334 -181 -2
-2 -214 59 -472 136 -258 77 -470 140 -472 140 -2 0 18 40 44 89 l48 90 90
-48 c50 -26 242 -128 428 -226z m-458 -305 c688 -205 1254 -377 1259 -381 6
-5 -606 -9 -1373 -9 -1102 0 -1382 3 -1379 13 3 6 54 180 114 385 60 205 113
371 119 369 5 -2 573 -172 1260 -377z m2525 -2265 l0 -1535 -2220 0 -2220 0 0
425 0 425 838 0 c480 0 873 4 922 10 310 35 545 249 606 550 75 370 -177 741
-550 809 -40 7 -351 11 -938 11 l-878 0 0 420 0 420 2220 0 2220 0 0 -1535z
m-2609 314 c78 -37 133 -90 169 -163 85 -174 19 -372 -155 -464 l-50 -27 -897
-3 -898 -2 0 345 0 346 888 -3 887 -3 56 -26z"/>
</g>
</svg>
